<svg xmlns="http://www.w3.org/2000/svg" viewBox="0 0 600 700" role="img">
<defs>
<radialGradient id="kler-bg" cx="50%" cy="35%" r="80%"><stop offset="0" stop-color="#3A3129"/><stop offset=".6" stop-color="#1A1613"/><stop offset="1" stop-color="#0D0B0A"/></radialGradient>
<linearGradient id="kler-metal" x1="0" y1="0" x2="0" y2="1"><stop offset="0" stop-color="#F3F3F1"/><stop offset=".45" stop-color="#C9CACC"/><stop offset=".55" stop-color="#E9E9E7"/><stop offset="1" stop-color="#9C9EA2"/></linearGradient>
<linearGradient id="kler-black" x1="0" y1="0" x2="0" y2="1"><stop offset="0" stop-color="#3A3A3A"/><stop offset="1" stop-color="#050505"/></linearGradient>
<linearGradient id="kler-fade" x1="0" y1="0" x2="0" y2="1"><stop offset=".55" stop-color="#000" stop-opacity="0"/><stop offset="1" stop-color="#000" stop-opacity=".75"/></linearGradient>
<filter id="kler-shadow"><feGaussianBlur stdDeviation="12"/></filter>
</defs>
<rect width="600" height="700" fill="url(#kler-bg)"/>
<defs><pattern id="kler-weave" width="6" height="6" patternUnits="userSpaceOnUse"><rect width="6" height="6" fill="#FDFCF9"/><path d="M0 3h6M3 0v6" stroke="#EEE9DE"/></pattern></defs>
<g><path d="M 550 80 l 30 -18 v 420 l -30 18 Z" fill="#CBBE9F"/><rect x="250" y="80" width="300" height="420" fill="url(#kler-weave)"/></g><g><path d="M 500 110 l 30 -18 v 420 l -30 18 Z" fill="#CBBE9F"/><rect x="200" y="110" width="300" height="420" fill="url(#kler-weave)"/></g><g><path d="M 450 140 l 30 -18 v 420 l -30 18 Z" fill="#CBBE9F"/><rect x="150" y="140" width="300" height="420" fill="url(#kler-weave)"/></g>
<rect width="600" height="700" fill="url(#kler-fade)"/>
</svg>