<svg xmlns="http://www.w3.org/2000/svg" viewBox="0 0 800 800" role="img">
<defs>
<radialGradient id="set12-bg" cx="50%" cy="40%" r="75%">
<stop offset="0" stop-color="#FFFFFF"/><stop offset="1" stop-color="#EFEBE3"/>
</radialGradient>
<linearGradient id="set12-metal" x1="0" y1="0" x2="0" y2="1">
<stop offset="0" stop-color="#F3F3F1"/><stop offset=".45" stop-color="#C9CACC"/><stop offset=".55" stop-color="#E9E9E7"/><stop offset="1" stop-color="#9C9EA2"/>
</linearGradient>
<linearGradient id="set12-black" x1="0" y1="0" x2="0" y2="1">
<stop offset="0" stop-color="#3A3A3A"/><stop offset=".5" stop-color="#151515"/><stop offset="1" stop-color="#050505"/>
</linearGradient>
<filter id="set12-shadow" x="-20%" y="-20%" width="140%" height="160%"><feGaussianBlur stdDeviation="14"/></filter>
</defs>
<rect width="800" height="800" fill="url(#set12-bg)"/>
<ellipse cx="400" cy="610" rx="330" ry="34" fill="#000" opacity=".25" filter="url(#set12-shadow)"/>
<path d="M 90 300 L 710 300 L 740 600 L 60 600 Z" fill="#141414"/>
<path d="M 90 300 L 710 300 L 700 330 L 100 330 Z" fill="#2A2A2A"/>
<rect x="100" y="335" width="600" height="250" fill="#1E1E1E"/>
<g><rect x="118" y="360" width="38" height="190" rx="4" fill="url(#set12-metal)"/><rect x="118" y="395" width="38" height="120" fill="#FBFAF7"/><rect x="118" y="470" width="38" height="45" fill="#F4F1EA"/><rect x="125" y="340" width="24" height="26" rx="3" fill="url(#set12-black)"/></g><g><rect x="166.5" y="360" width="38" height="190" rx="4" fill="url(#set12-metal)"/><rect x="166.5" y="395" width="38" height="120" fill="#FBFAF7"/><rect x="166.5" y="470" width="38" height="45" fill="#F2C230"/><rect x="173.5" y="340" width="24" height="26" rx="3" fill="url(#set12-black)"/></g><g><rect x="215" y="360" width="38" height="190" rx="4" fill="url(#set12-metal)"/><rect x="215" y="395" width="38" height="120" fill="#FBFAF7"/><rect x="215" y="470" width="38" height="45" fill="#C9962E"/><rect x="222" y="340" width="24" height="26" rx="3" fill="url(#set12-black)"/></g><g><rect x="263.5" y="360" width="38" height="190" rx="4" fill="url(#set12-metal)"/><rect x="263.5" y="395" width="38" height="120" fill="#FBFAF7"/><rect x="263.5" y="470" width="38" height="45" fill="#D9541E"/><rect x="270.5" y="340" width="24" height="26" rx="3" fill="url(#set12-black)"/></g><g><rect x="312" y="360" width="38" height="190" rx="4" fill="url(#set12-metal)"/><rect x="312" y="395" width="38" height="120" fill="#FBFAF7"/><rect x="312" y="470" width="38" height="45" fill="#B0202A"/><rect x="319" y="340" width="24" height="26" rx="3" fill="url(#set12-black)"/></g><g><rect x="360.5" y="360" width="38" height="190" rx="4" fill="url(#set12-metal)"/><rect x="360.5" y="395" width="38" height="120" fill="#FBFAF7"/><rect x="360.5" y="470" width="38" height="45" fill="#7A1F4F"/><rect x="367.5" y="340" width="24" height="26" rx="3" fill="url(#set12-black)"/></g><g><rect x="409" y="360" width="38" height="190" rx="4" fill="url(#set12-metal)"/><rect x="409" y="395" width="38" height="120" fill="#FBFAF7"/><rect x="409" y="470" width="38" height="45" fill="#3B2F8F"/><rect x="416" y="340" width="24" height="26" rx="3" fill="url(#set12-black)"/></g><g><rect x="457.5" y="360" width="38" height="190" rx="4" fill="url(#set12-metal)"/><rect x="457.5" y="395" width="38" height="120" fill="#FBFAF7"/><rect x="457.5" y="470" width="38" height="45" fill="#1F3A93"/><rect x="464.5" y="340" width="24" height="26" rx="3" fill="url(#set12-black)"/></g><g><rect x="506" y="360" width="38" height="190" rx="4" fill="url(#set12-metal)"/><rect x="506" y="395" width="38" height="120" fill="#FBFAF7"/><rect x="506" y="470" width="38" height="45" fill="#1E7A6F"/><rect x="513" y="340" width="24" height="26" rx="3" fill="url(#set12-black)"/></g><g><rect x="554.5" y="360" width="38" height="190" rx="4" fill="url(#set12-metal)"/><rect x="554.5" y="395" width="38" height="120" fill="#FBFAF7"/><rect x="554.5" y="470" width="38" height="45" fill="#2F6B2F"/><rect x="561.5" y="340" width="24" height="26" rx="3" fill="url(#set12-black)"/></g><g><rect x="603" y="360" width="38" height="190" rx="4" fill="url(#set12-metal)"/><rect x="603" y="395" width="38" height="120" fill="#FBFAF7"/><rect x="603" y="470" width="38" height="45" fill="#8A3B1E"/><rect x="610" y="340" width="24" height="26" rx="3" fill="url(#set12-black)"/></g><g><rect x="651.5" y="360" width="38" height="190" rx="4" fill="url(#set12-metal)"/><rect x="651.5" y="395" width="38" height="120" fill="#FBFAF7"/><rect x="651.5" y="470" width="38" height="45" fill="#1B1B1B"/><rect x="658.5" y="340" width="24" height="26" rx="3" fill="url(#set12-black)"/></g>
<text x="400" y="250" text-anchor="middle" font-family="Georgia, serif" font-size="34" fill="#111">Oljemalingssett</text>
<text x="400" y="282" text-anchor="middle" font-family="Arial, sans-serif" font-size="16" fill="#8a7a55" letter-spacing="4">12 FARGER · 21 ML</text>
</svg>