<svg xmlns="http://www.w3.org/2000/svg" viewBox="0 0 800 800" role="img">
<defs>
<radialGradient id="sape-bg" cx="50%" cy="40%" r="75%">
<stop offset="0" stop-color="#FFFFFF"/><stop offset="1" stop-color="#EFEBE3"/>
</radialGradient>
<linearGradient id="sape-metal" x1="0" y1="0" x2="0" y2="1">
<stop offset="0" stop-color="#F3F3F1"/><stop offset=".45" stop-color="#C9CACC"/><stop offset=".55" stop-color="#E9E9E7"/><stop offset="1" stop-color="#9C9EA2"/>
</linearGradient>
<linearGradient id="sape-black" x1="0" y1="0" x2="0" y2="1">
<stop offset="0" stop-color="#3A3A3A"/><stop offset=".5" stop-color="#151515"/><stop offset="1" stop-color="#050505"/>
</linearGradient>
<filter id="sape-shadow" x="-20%" y="-20%" width="140%" height="160%"><feGaussianBlur stdDeviation="14"/></filter>
</defs>
<rect width="800" height="800" fill="url(#sape-bg)"/>
<ellipse cx="400" cy="560" rx="250" ry="30" fill="#000" opacity=".2" filter="url(#sape-shadow)"/>
<ellipse cx="400" cy="500" rx="220" ry="70" fill="url(#sape-metal)"/>
<rect x="180" y="400" width="440" height="100" fill="url(#sape-metal)"/>
<ellipse cx="400" cy="400" rx="220" ry="70" fill="#E9E6DF"/>
<ellipse cx="400" cy="400" rx="190" ry="56" fill="#F5EFDC"/>
<ellipse cx="400" cy="400" rx="120" ry="34" fill="#EFE5C8"/>
<rect x="250" y="425" width="300" height="60" fill="#111"/>
<text x="400" y="463" text-anchor="middle" font-family="Georgia, serif" font-size="28" fill="#D4AF65">Penselsåpe</text>
<g transform="translate(470 290) rotate(-158)">
<path d="M 0 -11 Q -35.64 -13 -59.4 0 Q -35.64 13 0 11 Z" fill="#F1E9D8"/>
<path d="M -4 -9 L -53.46 -5.5" stroke="#fffffb" stroke-width="2" opacity=".6"/>
<rect x="0" y="-13" width="39.6" height="26" fill="url(#sape-metal)" stroke="#8E9094"/>
<path d="M 39.6 -13 L 270.6 -6.16 Q 284.6 0 270.6 6.16 L 39.6 13 Z" fill="#1A1A1A"/>
<path d="M 43.6 -10 L 264.6 -4.84" stroke="#fff" stroke-width="2" opacity=".18"/>
</g>
</svg>