<svg xmlns="http://www.w3.org/2000/svg" viewBox="0 0 800 800" role="img">
<defs>
<radialGradient id="skomp-bg" cx="50%" cy="40%" r="75%">
<stop offset="0" stop-color="#FFFFFF"/><stop offset="1" stop-color="#EFEBE3"/>
</radialGradient>
<linearGradient id="skomp-metal" x1="0" y1="0" x2="0" y2="1">
<stop offset="0" stop-color="#F3F3F1"/><stop offset=".45" stop-color="#C9CACC"/><stop offset=".55" stop-color="#E9E9E7"/><stop offset="1" stop-color="#9C9EA2"/>
</linearGradient>
<linearGradient id="skomp-black" x1="0" y1="0" x2="0" y2="1">
<stop offset="0" stop-color="#3A3A3A"/><stop offset=".5" stop-color="#151515"/><stop offset="1" stop-color="#050505"/>
</linearGradient>
<filter id="skomp-shadow" x="-20%" y="-20%" width="140%" height="160%"><feGaussianBlur stdDeviation="14"/></filter>
</defs>
<rect width="800" height="800" fill="url(#skomp-bg)"/>
<defs><linearGradient id="skomp-wood" x1="0" x2="1"><stop offset="0" stop-color="#9A6A3C"/><stop offset=".5" stop-color="#B98352"/><stop offset="1" stop-color="#8A5B30"/></linearGradient></defs>
<ellipse cx="400" cy="650" rx="330" ry="30" fill="#000" opacity=".25" filter="url(#skomp-shadow)"/>
<path d="M 70 300 L 730 300 L 760 640 L 40 640 Z" fill="url(#skomp-wood)"/>
<rect x="95" y="320" width="610" height="300" fill="#2B1D12"/>
<g><rect x="115" y="345" width="32" height="140" rx="4" fill="url(#skomp-metal)"/><rect x="115" y="375" width="32" height="80" fill="#FBFAF7"/><rect x="115" y="430" width="32" height="25" fill="#F4F1EA"/></g><g><rect x="155" y="345" width="32" height="140" rx="4" fill="url(#skomp-metal)"/><rect x="155" y="375" width="32" height="80" fill="#FBFAF7"/><rect x="155" y="430" width="32" height="25" fill="#F2C230"/></g><g><rect x="195" y="345" width="32" height="140" rx="4" fill="url(#skomp-metal)"/><rect x="195" y="375" width="32" height="80" fill="#FBFAF7"/><rect x="195" y="430" width="32" height="25" fill="#C9962E"/></g><g><rect x="235" y="345" width="32" height="140" rx="4" fill="url(#skomp-metal)"/><rect x="235" y="375" width="32" height="80" fill="#FBFAF7"/><rect x="235" y="430" width="32" height="25" fill="#D9541E"/></g><g><rect x="275" y="345" width="32" height="140" rx="4" fill="url(#skomp-metal)"/><rect x="275" y="375" width="32" height="80" fill="#FBFAF7"/><rect x="275" y="430" width="32" height="25" fill="#B0202A"/></g><g><rect x="315" y="345" width="32" height="140" rx="4" fill="url(#skomp-metal)"/><rect x="315" y="375" width="32" height="80" fill="#FBFAF7"/><rect x="315" y="430" width="32" height="25" fill="#7A1F4F"/></g><g><rect x="355" y="345" width="32" height="140" rx="4" fill="url(#skomp-metal)"/><rect x="355" y="375" width="32" height="80" fill="#FBFAF7"/><rect x="355" y="430" width="32" height="25" fill="#3B2F8F"/></g><g><rect x="395" y="345" width="32" height="140" rx="4" fill="url(#skomp-metal)"/><rect x="395" y="375" width="32" height="80" fill="#FBFAF7"/><rect x="395" y="430" width="32" height="25" fill="#1F3A93"/></g>
<g transform="translate(450 355) rotate(0)">
<path d="M 0 -6 L -41.4 -9 L -41.4 9 L 0 6 Z" fill="#E8DCC0"/>
<path d="M -4 -4 L -37.26 -3" stroke="#ffffe3" stroke-width="2" opacity=".6"/>
<rect x="0" y="-8" width="27.599999999999998" height="16" fill="url(#skomp-metal)" stroke="#8E9094"/>
<path d="M 27.599999999999998 -8 L 188.6 -3.3600000000000003 Q 202.6 0 188.6 3.3600000000000003 L 27.599999999999998 8 Z" fill="#1A1A1A"/>
<path d="M 31.599999999999998 -5 L 182.6 -2.64" stroke="#fff" stroke-width="2" opacity=".18"/>
</g><g transform="translate(450 389) rotate(0)">
<path d="M 0 -6 Q -24.84 -8 -41.4 0 Q -24.84 8 0 6 Z" fill="#E8DCC0"/>
<path d="M -4 -4 L -37.26 -3" stroke="#ffffe3" stroke-width="2" opacity=".6"/>
<rect x="0" y="-8" width="27.599999999999998" height="16" fill="url(#skomp-metal)" stroke="#8E9094"/>
<path d="M 27.599999999999998 -8 L 188.6 -3.3600000000000003 Q 202.6 0 188.6 3.3600000000000003 L 27.599999999999998 8 Z" fill="#1A1A1A"/>
<path d="M 31.599999999999998 -5 L 182.6 -2.64" stroke="#fff" stroke-width="2" opacity=".18"/>
</g><g transform="translate(450 423) rotate(0)">
<path d="M 0 -6 L -28.979999999999997 -8 Q -41.4 -6 -41.4 0 Q -41.4 6 -28.979999999999997 8 L 0 6 Z" fill="#E8DCC0"/>
<path d="M -4 -4 L -37.26 -3" stroke="#ffffe3" stroke-width="2" opacity=".6"/>
<rect x="0" y="-8" width="27.599999999999998" height="16" fill="url(#skomp-metal)" stroke="#8E9094"/>
<path d="M 27.599999999999998 -8 L 188.6 -3.3600000000000003 Q 202.6 0 188.6 3.3600000000000003 L 27.599999999999998 8 Z" fill="#1A1A1A"/>
<path d="M 31.599999999999998 -5 L 182.6 -2.64" stroke="#fff" stroke-width="2" opacity=".18"/>
</g><g transform="translate(450 457) rotate(0)">
<path d="M 0 -6 L -41.4 -9 L -41.4 9 L 0 6 Z" fill="#E8DCC0"/>
<path d="M -4 -4 L -37.26 -3" stroke="#ffffe3" stroke-width="2" opacity=".6"/>
<rect x="0" y="-8" width="27.599999999999998" height="16" fill="url(#skomp-metal)" stroke="#8E9094"/>
<path d="M 27.599999999999998 -8 L 188.6 -3.3600000000000003 Q 202.6 0 188.6 3.3600000000000003 L 27.599999999999998 8 Z" fill="#1A1A1A"/>
<path d="M 31.599999999999998 -5 L 182.6 -2.64" stroke="#fff" stroke-width="2" opacity=".18"/>
</g>
<rect x="120" y="505" width="200" height="95" fill="#FBF8F1"/><rect x="340" y="505" width="200" height="95" fill="#FBF8F1"/>
<rect x="570" y="500" width="70" height="105" rx="10" fill="#E2B33B" opacity=".9"/>
<text x="400" y="240" text-anchor="middle" font-family="Georgia, serif" font-size="36" fill="#111">Komplett kunstnersett</text>
<rect x="330" y="258" width="140" height="3" fill="#D4AF65"/>
</svg>